<svg xmlns="http://www.w3.org/2000/svg" width="233.424" height="20" viewBox="2 0 233.424 20" enable-background="new 2 0 233.424 20"><path fill="#82B541" d="M15.534 2.014c-.531-.295-2.053-.112-3.883.454-3.2 2.188-5.901 5.411-6.09 10.586-.034.124-.35-.016-.412-.054-.865-1.657-1.207-3.402-.485-5.917.135-.225-.306-.5-.385-.422-.158.159-.818.862-1.257 1.624-2.173 3.771-.752 8.603 3.052 10.718 3.803 2.118 8.604.752 10.722-3.052 2.449-4.391.175-13.134-1.262-13.937z"/><g fill="#fff"><path d="M29.147 4.121c-4.51 0-7.782 3.352-7.782 7.971 0 4.655 3.265 7.907 7.938 7.907 2.362 0 4.231-.738 5.717-2.258.444-.48.492-.94.492-1.117 0-.753-.56-1.3-1.332-1.3-.388 0-.714.146-1.087.492-.841.784-1.95 1.586-3.791 1.586-2.559 0-4.639-1.921-4.77-4.388h10.183c1.107 0 1.646-.517 1.646-1.582 0-.315 0-.54-.063-.986-.548-3.961-3.222-6.325-7.151-6.325zm0 2.473c2.444 0 4.014 1.559 4.11 4.073h-8.721c.229-2.327 2.197-4.073 4.611-4.073zM46.085 4.121c-2.048 0-4.076 1.178-4.868 2.815v-1.01c0-1.567-1.214-1.646-1.457-1.646-.719 0-1.488.433-1.488 1.646v12.208c0 1.626 1.291 1.708 1.551 1.708.259 0 1.551-.082 1.551-1.708v-6.545c0-2.848 1.614-4.837 3.924-4.837 2.238 0 3.326 1.469 3.326 4.491v6.892c0 1.626 1.293 1.708 1.552 1.708s1.551-.082 1.551-1.708v-7.867c0-2.972-1.482-6.147-5.642-6.147zM65.763 4.279c-.717 0-1.237.418-1.547 1.241l-4.244 10.674-4.212-10.674c-.329-.835-.845-1.241-1.578-1.241-.856 0-1.551.668-1.551 1.489 0 .202.023.465.194.877l4.877 11.517c.582 1.389 1.537 1.68 2.238 1.68.699 0 1.656-.291 2.238-1.68l4.91-11.582c.168-.406.194-.703.194-.845.001-.829-.654-1.456-1.519-1.456zM74.783 4.121c-1.985 0-3.832.554-5.203 1.555-.465.321-.691.721-.691 1.225 0 .691.529 1.235 1.205 1.235.292 0 .62-.117.92-.327 1.179-.786 2.286-1.152 3.484-1.152 2.294 0 3.611 1.167 3.611 3.201v.337c-5.149.005-10.385.628-10.385 5.106 0 3.223 2.755 4.667 5.485 4.667 2.175 0 3.911-.862 5.025-2.493v.784c0 1.168.785 1.582 1.457 1.582.142 0 1.393-.044 1.393-1.582v-8.213c.001-3.71-2.356-5.925-6.301-5.925zm2.674 8.358h.653v.715c0 2.613-1.665 4.302-4.24 4.302-.698 0-2.98-.163-2.98-2.258 0-2.473 3.748-2.759 6.567-2.759zM89.163 7.098c1.357 0 1.425-1.056 1.425-1.268 0-.628-.375-1.299-1.425-1.299h-2.791v-2.823c0-1.262-.818-1.708-1.519-1.708-.259 0-1.551.082-1.551 1.708v13.406c0 3.093 1.526 4.728 4.414 4.728.747 0 1.475-.132 1.951-.354.546-.272.859-.719.859-1.227 0-.717-.519-1.237-1.237-1.237-.138 0-.335.034-.552.097-.266.066-.445.092-.643.092-1.175 0-1.722-.767-1.722-2.413v-7.702h2.791zM99.422 4.121c-4.693 0-8.097 3.327-8.097 7.907 0 2.231.825 4.263 2.322 5.723 1.485 1.451 3.536 2.249 5.775 2.249 4.633 0 8.127-3.426 8.127-7.971 0-4.581-3.418-7.908-8.127-7.908zm0 13.249c-3.217 0-4.9-2.687-4.9-5.341 0-3.647 2.54-5.308 4.9-5.308 2.359 0 4.9 1.661 4.9 5.308 0 3.67-2.541 5.341-4.9 5.341z"/></g><g fill="#82B541"><path d="M122.547 9.206l-.036-.007-3.327 8.245h-.926l-3.327-8.238-.036.007.141 4.161v2.981l1.151.198v.89h-3.694v-.89l1.151-.198v-8.103l-1.151-.198v-.897h2.932l3.278 8.357h.042l3.271-8.357h2.939v.897l-1.152.198v8.103l1.152.198v.89h-3.695v-.89l1.151-.198v-2.981l.136-4.168zM126.418 16.553l.763-.106 3.596-9.29h1.194l3.532 9.29.756.106v.89h-2.953v-.89l.777-.134-.678-1.893h-4.118l-.7 1.893.777.134v.89h-2.946v-.89zm3.299-3.193h3.264l-1.597-4.416h-.042l-1.625 4.416zM142.221 7.164c1.121 0 1.981.248 2.579.745.598.497.897 1.202.897 2.116 0 .5-.139.942-.416 1.328-.278.386-.676.69-1.194.911.56.184.965.483 1.212.897.247.414.371.925.371 1.533v.827c0 .316.04.549.121.699.08.151.212.24.395.269l.339.042v.911h-.748c-.542 0-.927-.188-1.155-.565s-.342-.834-.342-1.371v-.798c0-.56-.163-1.01-.488-1.349-.325-.339-.761-.509-1.307-.509h-2.233v3.504l1.151.198v.89h-3.694v-.89l1.151-.198v-8.102l-1.151-.198v-.89h4.5120000000000005zm-1.972 4.592h1.83c.777 0 1.343-.149 1.696-.445.353-.297.529-.73.529-1.3 0-.541-.169-.97-.509-1.286-.339-.316-.864-.473-1.575-.473h-1.971v3.504zM148.077 16.553l1.151-.198v-8.103l-1.151-.198v-.897h3.694v.897l-1.151.198v3.455h1.066l2.876-3.554-.77-.099v-.897h3.264v.897l-.968.177-3.144 3.9 3.434 4.246.968.177v.89h-3.377v-.89l.784-.099-2.932-3.653h-1.201v3.554l1.151.198v.89h-3.694v-.891zM158.914 17.443v-.89l1.151-.198v-8.103l-1.151-.198v-.897h7.898v2.473h-1.194l-.113-1.378h-4.048v3.328h3.935v1.095h-3.935v3.681h4.133l.113-1.378h1.186v2.466l-7.975-.001zM177.168 7.157v2.275h-1.187l-.106-1.18h-2.282v8.103l1.151.198v.89h-3.694v-.89l1.151-.198v-8.103h-2.289l-.099 1.18h-1.194v-2.275h8.549zM183.236 7.157c1.097 0 1.951.283 2.561.848s.915 1.309.915 2.232c0 .933-.305 1.679-.915 2.24-.61.56-1.464.841-2.561.841h-2.183v3.038l1.151.198v.89h-3.694v-.89l1.151-.198v-8.104l-1.151-.198v-.897h4.726zm-2.183 5.072h2.183c.697 0 1.219-.187 1.565-.562.346-.375.519-.847.519-1.417s-.173-1.046-.519-1.427c-.346-.382-.868-.572-1.565-.572h-2.183v3.978zM188.28 17.443v-.89l1.151-.198v-8.103l-1.151-.198v-.897h3.694v.897l-1.151.198v8.103h3.574l.106-1.18h1.186v2.268h-7.409zM197.351 16.553l.763-.106 3.596-9.29h1.194l3.532 9.29.756.106v.89h-2.953v-.89l.777-.134-.678-1.893h-4.118l-.7 1.893.777.134v.89h-2.946v-.89zm3.299-3.193h3.264l-1.597-4.416h-.042l-1.625 4.416zM216.05 10.315h-.982l-.261-1.455c-.226-.222-.504-.403-.834-.544-.329-.141-.723-.212-1.18-.212-1.069 0-1.891.388-2.466 1.162-.575.775-.862 1.758-.862 2.949v.163c0 1.191.281 2.177.844 2.956.563.78 1.343 1.169 2.342 1.169.466 0 .891-.073 1.272-.219s.676-.325.883-.537l.261-1.455h.982v1.83c-.296.381-.742.722-1.335 1.021s-1.281.448-2.063.448c-1.337 0-2.435-.494-3.292-1.483-.857-.989-1.285-2.233-1.285-3.73v-.149c0-1.507.421-2.754 1.264-3.741s1.948-1.48 3.313-1.48c.782 0 1.469.152 2.063.456.594.304 1.039.644 1.335 1.021v1.83h.001zM217.986 17.443v-.89l1.151-.198v-8.103l-1.151-.198v-.897h7.898v2.473h-1.194l-.113-1.378h-4.048v3.328h3.935v1.095h-3.935v3.681h4.133l.113-1.378h1.186v2.466l-7.975-.001zM235.237 10.195h-1.053l-.261-1.47c-.212-.179-.494-.327-.847-.445s-.763-.177-1.229-.177c-.74 0-1.307.157-1.702.47-.396.313-.593.722-.593 1.226 0 .448.201.821.604 1.12s1.054.562 1.954.788c1.083.268 1.906.664 2.469 1.187s.845 1.17.845 1.943c0 .829-.338 1.495-1.014 1.999-.676.505-1.56.756-2.653.756-.792 0-1.494-.129-2.109-.388-.614-.259-1.115-.599-1.501-1.018v-1.915h1.046l.269 1.476c.268.222.588.403.961.544.372.141.817.212 1.335.212.701 0 1.256-.148 1.663-.445.408-.297.612-.699.612-1.208 0-.471-.177-.866-.53-1.184s-.977-.585-1.872-.802c-1.088-.259-1.938-.641-2.55-1.145-.612-.504-.918-1.137-.918-1.9 0-.805.342-1.475 1.025-2.01.682-.535 1.57-.802 2.663-.802.721 0 1.376.124 1.968.371.591.248 1.065.548 1.423.901v1.916h-.005z"/></g></svg>